<svg width="188" height="56" viewBox="0 0 188 56" fill="none" xmlns="http://www.w3.org/2000/svg">
    <g id="Isolation_Mode" clip-path="url(#clip0_1_1021)">
        <path id="Vector" opacity="0.44" fill-rule="evenodd" clip-rule="evenodd"
            d="M122.61 25.032V27.5441C122.61 28.6234 122.852 29.6096 123.578 30.4284C124.192 31.1355 124.936 31.4332 125.867 31.4332C127.02 31.4332 127.895 31.0611 128.565 30.112C129.495 28.8095 129.7 26.9114 129.7 25.3669C129.7 24.1015 129.514 22.6129 128.714 21.5708C128.1 20.752 127.262 20.4915 126.258 20.4915C125.197 20.4915 124.378 20.8637 123.69 21.6452C122.852 22.5943 122.592 23.7852 122.592 25.0134M68.9811 28.4559L66.3387 28.7908C65.706 28.8653 64.6453 29.0886 64.2546 29.684C64.0871 29.926 64.0499 30.2423 64.0499 30.54C64.0499 30.9122 64.1429 31.2099 64.4221 31.4704C64.7756 31.8054 65.2966 31.8798 65.7805 31.8798C66.6923 31.8798 67.4366 31.6193 68.0693 30.9308C68.702 30.2237 68.9625 29.3863 68.9811 28.4745V28.4559ZM92.9486 13.439C94.7164 12.1178 96.8564 11.4479 99.3313 11.4479C106.533 11.4479 109.119 16.621 109.119 23.2083V39.8814H98.3078V24.5854C98.3078 23.5061 98.1776 21.5522 97.1913 20.8451C96.8006 20.566 96.2981 20.4915 95.8329 20.4915C94.9955 20.4915 94.3629 20.7893 93.8232 21.4219C93.1533 22.2221 92.93 23.2083 92.93 24.2318V39.8814H82.1V12.0433H92.93V13.439H92.9486ZM24.8421 31.5263C24.8421 31.5263 24.8421 31.4704 24.8421 31.4518C24.5816 31.2285 24.2467 31.0425 23.9303 30.9122C23.4093 30.6889 22.851 30.4842 22.2928 30.3353C21.6043 30.1306 20.9344 29.9073 20.2831 29.6468C19.3341 29.2747 18.3664 28.8653 17.4732 28.3629C16.6172 27.879 15.8357 27.2836 15.1844 26.5578C14.5331 25.8321 14.0493 24.9947 13.7143 24.0829C13.3608 23.0781 13.2119 21.9988 13.2119 20.9195C13.2119 19.375 13.5469 17.8678 14.347 16.528C15.0728 15.3184 16.0776 14.3136 17.2685 13.5506C18.4781 12.7877 19.8179 12.2666 21.2135 11.9503C22.6463 11.6154 24.1164 11.4665 25.6051 11.4665C26.796 11.4665 27.9869 11.5595 29.1593 11.7456C30.3502 11.9317 31.5411 12.1736 32.6948 12.5272L33.8486 12.8621V22.7617L31.4109 21.3289C30.5735 20.8451 29.6803 20.4729 28.7313 20.231C27.8008 19.9891 26.8518 19.8588 25.9028 19.8588C25.5492 19.8588 25.1771 19.8775 24.8235 19.9519C24.5816 19.9891 24.3211 20.0635 24.0978 20.1938C24.042 20.2124 23.9675 20.2682 23.9303 20.3054V20.3427C24.1164 20.5474 24.3583 20.6962 24.5816 20.8079C25.0096 21.0126 25.4562 21.1986 25.9028 21.3475C26.4797 21.5336 27.0565 21.7197 27.6334 21.9244C28.6382 22.2779 29.6245 22.6873 30.5921 23.1711C31.5039 23.6363 32.3413 24.2132 33.0856 24.9203C33.83 25.646 34.4068 26.4834 34.7976 27.4324C35.2256 28.4745 35.3931 29.6096 35.3931 30.7447C35.3931 32.3636 35.0581 33.9454 34.2021 35.341C33.4392 36.5877 32.4157 37.6112 31.1504 38.3927C29.885 39.1743 28.4708 39.6953 27.0007 40.0117C25.4934 40.3466 23.9489 40.4955 22.4044 40.4955C19.6504 40.4955 16.9336 40.0861 14.347 39.1557L13.2677 38.7649V28.6234L15.724 30.0934C16.7847 30.7261 17.9012 31.2658 19.0922 31.6193C20.0784 31.917 21.1205 32.1031 22.1439 32.1031C22.9069 32.1031 23.9303 32.0473 24.6374 31.7124C24.6933 31.6937 24.8421 31.6193 24.8793 31.5635L24.8421 31.5263ZM10.9975 39.8814H0V2.19953H10.9975V39.8814ZM53.8897 30.0004C54.4852 24.7714 58.4302 22.2407 63.6963 21.5522L68.7206 20.8823C68.3298 20.0821 67.4924 19.8588 66.2085 19.8588C63.4916 19.8588 61.0167 20.7148 58.7465 22.2035L56.2344 23.8596V14.1461L57.109 13.6995C58.5418 12.9552 60.2538 12.4713 61.8355 12.1178C63.5847 11.7084 65.4083 11.4479 67.2133 11.4479C75.1032 11.4479 79.3459 15.6534 79.3459 23.5619V39.8814H68.9253V38.7649C67.3063 39.9 65.3525 40.4769 63.1195 40.4769C60.5887 40.4769 58.1883 39.7884 56.346 37.9834C55.5831 37.2204 55.0062 36.3644 54.5969 35.4526V38.951L53.7409 39.3976C52.0475 40.2908 49.7959 40.4769 47.9165 40.4769C41.5338 40.4769 38.2773 36.8296 38.2773 30.5214V20.8637H34.2952V12.0247H38.2773V7.11213L49.0888 4.02315V12.0247H54.6155V20.8637H49.0888V29.2002C49.0888 29.7399 49.1446 30.8192 49.6284 31.1913C49.8703 31.3774 50.2425 31.4146 50.5216 31.4146C51.1171 31.4146 51.694 31.2099 52.215 30.9122L53.9083 29.9818L53.8897 30.0004ZM155.621 28.2698C153.054 31.2099 153.295 33.8895 156.143 36.9971C157.054 35.0246 157.91 32.5125 157.185 30.4842C156.868 29.6096 156.291 28.8839 155.621 28.2698ZM171.978 28.6048V0.227051H182.752V29.926C182.752 30.2981 182.79 30.8936 183.069 31.1913C183.273 31.4146 183.571 31.4704 183.869 31.4704C184.167 31.4704 184.502 31.4332 184.799 31.3774C185.209 31.303 185.618 31.2285 186.028 31.1541L187.963 30.7819V39.3418L186.753 39.6581C185.748 39.9186 184.725 40.1233 183.683 40.2722C182.548 40.4397 181.413 40.5141 180.259 40.5141C179.105 40.5141 177.97 40.328 176.891 39.9C175.867 39.472 174.956 38.858 174.193 38.0392C173.43 37.2204 172.871 36.2528 172.499 35.1921C172.276 34.5408 172.108 33.8895 172.034 33.2196C171.867 34.2245 171.55 35.1921 171.048 36.0853C168.294 40.9607 161.725 40.8304 156.943 40.0489L156.273 39.9372L155.51 40.0675C150.802 40.8304 144.252 41.1096 140.958 36.8855C139.99 35.6387 139.507 34.3175 139.265 32.9033C138.762 34.057 138.13 35.1549 137.311 36.1597C134.948 39.0813 131.766 40.4769 128.025 40.4769C126.016 40.4769 124.211 40.0303 122.666 39.0813V39.8814H111.836V0.227051H122.666V13.4204C124.49 12.1178 126.667 11.4479 129.142 11.4479C132.566 11.4479 135.599 12.6016 137.739 15.337C139.767 17.905 140.53 21.1242 140.642 24.3248C140.716 24.176 140.809 24.0085 140.884 23.8596C141.814 22.1477 142.838 20.4915 143.638 18.7237C145.685 14.2205 145.517 10.3872 143.135 6.01424L140.753 1.65989L145.238 3.76263C149.127 5.58625 152.421 8.24724 155.249 11.4107C157.333 8.21003 160.385 6.03285 164.144 4.73027L167.419 3.59516L166.172 6.83301C164.647 10.8338 164.405 14.4066 166.768 18.1283C168.238 20.4357 169.913 22.2221 170.88 24.8831C171.308 26.0368 171.68 27.2836 171.904 28.5675L171.978 28.6048Z"
            fill="#CCAD64" />
        <path id="Vector_2"
            d="M181.134 29.9259C181.134 30.968 181.375 31.7495 181.878 32.2892C182.362 32.8288 183.05 33.0893 183.869 33.0893C184.278 33.0893 184.706 33.0521 185.116 32.9591C185.525 32.8846 185.953 32.8102 186.362 32.7172V38.0578C185.451 38.2997 184.483 38.4858 183.46 38.6346C182.436 38.7835 181.375 38.8579 180.278 38.8579C179.273 38.8579 178.342 38.6904 177.524 38.3555C176.705 38.0205 175.998 37.5367 175.402 36.904C174.825 36.2714 174.36 35.5084 174.044 34.6152C173.727 33.722 173.56 32.6986 173.56 31.5821V1.84595H181.096V29.9259H181.134ZM120.991 25.0319V27.5441C120.991 29.1258 121.438 30.447 122.368 31.489C123.28 32.5311 124.453 33.0521 125.885 33.0521C127.616 33.0521 128.956 32.3822 129.905 31.0424C130.854 29.7026 131.338 27.8046 131.338 25.3669C131.338 23.3386 130.891 21.7383 130.016 20.6031C129.142 19.468 127.895 18.8912 126.276 18.8912C124.75 18.8912 123.504 19.4494 122.499 20.6031C121.494 21.7383 120.991 23.2269 120.991 25.0505V25.0319ZM121.196 35.3968H121.103V38.2625H113.511V1.84595H121.103V17.3653H121.196C123.076 14.4996 125.737 13.0668 129.198 13.0668C132.361 13.0668 134.799 14.1647 136.529 16.3232C138.241 18.5004 139.097 21.4777 139.097 25.2552C139.097 29.3491 138.092 32.6427 136.101 35.1363C134.092 37.6298 131.412 38.8579 128.081 38.8579C125.048 38.8579 122.759 37.7042 121.215 35.3968H121.196ZM107.5 38.2625H99.9268V24.5853C99.9268 20.7706 98.5684 18.8726 95.8516 18.8726C94.5304 18.8726 93.4511 19.375 92.6137 20.3798C91.7577 21.3847 91.3297 22.6687 91.3297 24.2318V38.2625H83.7375V13.6622H91.3297V17.5514H91.4228C93.2278 14.5554 95.8702 13.0668 99.3313 13.0668C104.784 13.0668 107.5 16.4535 107.5 23.2083V38.2811V38.2625ZM70.6 28.2698V26.6136L66.134 27.1905C63.6591 27.5068 62.431 28.6233 62.431 30.54C62.431 31.396 62.7287 32.1217 63.3242 32.6613C63.9383 33.2196 64.7384 33.4987 65.7619 33.4987C67.1947 33.4987 68.3484 33.0149 69.2416 32.0287C70.1348 31.0424 70.5814 29.7957 70.5814 28.2884L70.6 28.2698ZM77.727 38.2625H70.5442V34.7269H70.4512C68.795 37.4809 66.3573 38.8579 63.1195 38.8579C60.7376 38.8579 58.8582 38.188 57.4812 36.8296C56.1042 35.4712 55.4343 33.6662 55.4343 31.4146C55.4343 26.6509 58.2627 23.8782 63.9197 23.1525L70.6 22.2593C70.6 19.5611 69.1486 18.2213 66.2271 18.2213C63.3056 18.2213 60.5143 19.0959 57.8719 20.8451V15.1323C58.9326 14.574 60.3655 14.1088 62.2077 13.6808C64.0313 13.2715 65.7061 13.0668 67.2133 13.0668C74.2287 13.0668 77.727 16.5651 77.727 23.5619V38.2625ZM52.978 37.9833C51.8615 38.5788 50.1681 38.8765 47.9165 38.8765C42.5759 38.8765 39.8963 36.1039 39.8963 30.54V19.2633H35.9141V13.6622H39.8963V8.35886L47.4699 6.2003V13.6622H52.9966V19.2633H47.4699V29.2188C47.4699 31.7681 48.4933 33.0521 50.5217 33.0521C51.3218 33.0521 52.1592 32.8288 52.9966 32.3636V37.9833H52.978ZM14.8495 37.6112V31.4518C16.0962 32.2147 17.343 32.773 18.5898 33.1266C19.8365 33.4987 21.0088 33.6848 22.1067 33.6848C23.4465 33.6848 24.5258 33.4987 25.2888 33.1266C26.0703 32.7544 26.4611 32.1961 26.4611 31.4518C26.4611 30.968 26.2936 30.5586 25.94 30.2423C25.5865 29.9259 25.1399 29.6468 24.5816 29.4049C24.0234 29.163 23.4279 28.9397 22.7766 28.7536C22.1253 28.5489 21.4927 28.3442 20.8786 28.1023C19.9109 27.7301 19.0364 27.3394 18.292 26.9114C17.5477 26.4834 16.915 25.9996 16.4126 25.4227C15.9102 24.8645 15.5194 24.2132 15.2589 23.4874C14.9983 22.7431 14.8495 21.8871 14.8495 20.8637C14.8495 19.4866 15.1472 18.2957 15.7427 17.3095C16.3381 16.3232 17.1383 15.5045 18.1432 14.8718C19.148 14.2391 20.2831 13.7739 21.5857 13.4762C22.8697 13.1784 24.2095 13.0296 25.6051 13.0296C26.703 13.0296 27.8009 13.104 28.9174 13.2901C30.0339 13.4575 31.1504 13.6995 32.2297 14.0158V19.8774C31.262 19.3192 30.2386 18.8912 29.1407 18.6121C28.0428 18.3329 26.9635 18.2027 25.9028 18.2027C25.4004 18.2027 24.9352 18.2399 24.5072 18.3329C24.0606 18.4074 23.6698 18.5376 23.3349 18.7237C22.9999 18.8912 22.7394 19.0959 22.5533 19.375C22.3486 19.6355 22.2742 19.9332 22.2742 20.2682C22.2742 20.7148 22.4045 21.1056 22.7022 21.4219C22.9999 21.7383 23.3721 22.0174 23.8373 22.2593C24.3025 22.5012 24.8235 22.7059 25.3818 22.8734C25.9401 23.0594 26.5169 23.2455 27.0752 23.4316C28.08 23.7852 28.9918 24.1759 29.8106 24.5853C30.6293 24.9947 31.3365 25.4785 31.9133 26.0554C32.4902 26.6136 32.9554 27.2649 33.2531 28.0279C33.5695 28.7908 33.7183 29.684 33.7183 30.7261C33.7183 32.1775 33.402 33.4243 32.7693 34.4664C32.1366 35.5084 31.2992 36.3272 30.2572 36.9785C29.2151 37.6298 27.987 38.095 26.6286 38.3927C25.2515 38.6904 23.8373 38.8393 22.3673 38.8393C19.669 38.8393 17.1569 38.4299 14.8495 37.5926V37.6112ZM9.37863 38.2625H1.61896V3.81843H9.37863V38.2625ZM144.624 5.23266C151.007 16.9187 141.014 23.2827 140.772 29.256C140.66 32.1589 140.084 40.9234 155.305 38.4485C151.118 34.1128 151.211 30.112 155.491 26.0926C159.678 28.9955 160.162 32.6427 157.259 38.4299C171.085 40.7188 172.146 32.7172 169.466 25.4599C168.536 22.9478 166.824 21.1056 165.503 19.0214C162.86 14.8532 163.046 10.7779 164.777 6.27473C160.422 7.78201 157.371 10.443 155.622 14.2763C152.216 9.97779 148.532 7.05628 144.643 5.23266H144.624Z"
            fill="#CCAD64" />
        <path id="Vector_3" fill-rule="evenodd" clip-rule="evenodd"
            d="M141.609 51.6605L140.586 48.9065L139.581 51.6605H141.609ZM120.545 50.023H121.754C122.108 50.023 122.461 50.023 122.815 50.0044C122.927 50.0044 123.038 50.0044 123.15 49.9672C123.206 49.9672 123.28 49.9486 123.355 49.93C123.541 49.8741 123.69 49.7625 123.783 49.6136C123.894 49.4462 123.95 49.2228 123.95 49.0182C123.95 48.7762 123.894 48.5529 123.745 48.3855C123.597 48.1994 123.373 48.125 123.15 48.0877C123.094 48.0877 123.038 48.0877 123.001 48.0877C122.908 48.0877 122.815 48.0877 122.722 48.0877C122.424 48.0877 122.127 48.0877 121.829 48.0877H120.545V50.0788V50.023ZM86.2125 51.6605L85.189 48.9065L84.1842 51.6605H86.2125ZM13.5097 50.023H14.7192C15.0728 50.023 15.4264 50.023 15.7799 50.0044C15.8916 50.0044 16.0032 50.0044 16.1149 49.9672C16.1707 49.9672 16.2451 49.9486 16.3196 49.93C16.5056 49.8741 16.6545 49.7625 16.7475 49.6136C16.8592 49.4462 16.915 49.2228 16.915 49.0182C16.915 48.7762 16.8592 48.5529 16.7103 48.3855C16.5615 48.1994 16.3382 48.125 16.1149 48.0877C16.059 48.0877 16.0032 48.0877 15.966 48.0877C15.873 48.0877 15.7799 48.0877 15.6869 48.0877C15.3891 48.0877 15.0914 48.0877 14.7937 48.0877H13.5097V50.0788V50.023ZM175.83 48.0319H173.132V46.1711H180.687V48.0319H177.989V55.6241H175.812V48.0319H175.83ZM160.851 51.8652V46.1525H162.879V55.6055H160.776L157.334 50.023V55.6055H155.305V46.1525H157.352L160.851 51.8652ZM142.335 53.5214H138.893L138.13 55.6055H135.822L139.488 46.1525H141.665L145.443 55.6055H143.098L142.317 53.5214H142.335ZM124.043 51.4931C124.285 51.6605 124.508 51.8466 124.713 52.0699C124.881 52.256 125.029 52.4607 125.178 52.6654C125.383 52.9631 125.588 53.2609 125.774 53.5772L127.039 55.6055H124.453L123.076 53.54C122.889 53.2422 122.685 52.9631 122.48 52.684C122.368 52.5351 122.238 52.3677 122.108 52.2188C121.978 52.0699 121.81 51.9397 121.624 51.8838C121.382 51.7908 121.01 51.7908 120.75 51.7908H120.545V55.6055H118.368V46.1525H122.406C122.834 46.1525 123.262 46.1525 123.69 46.2083C123.987 46.2455 124.304 46.3013 124.583 46.3944C125.067 46.5805 125.439 46.8968 125.718 47.3248C126.016 47.79 126.146 48.311 126.146 48.8507C126.146 49.5206 125.96 50.1533 125.495 50.6557C125.104 51.1023 124.564 51.3442 124.006 51.4745L124.043 51.4931ZM99.9082 46.1525H102.085V51.2512C102.085 51.5675 102.085 51.9025 102.085 52.2188C102.085 52.3863 102.085 52.591 102.141 52.7398C102.216 53.0748 102.364 53.3353 102.644 53.54C102.96 53.7819 103.369 53.8377 103.76 53.8377C104.114 53.8377 104.542 53.7819 104.821 53.5586C105.044 53.3725 105.193 53.1492 105.23 52.8701C105.267 52.6654 105.286 52.4607 105.286 52.2746C105.286 51.9769 105.305 51.6605 105.305 51.3628V46.1525H107.482V51.1209C107.482 51.5861 107.482 52.0699 107.445 52.5351C107.426 52.8515 107.389 53.1678 107.333 53.4842C107.24 53.9308 107.054 54.3588 106.756 54.6937C106.458 55.0473 106.049 55.3078 105.621 55.4753C105.063 55.6986 104.411 55.773 103.816 55.773C103.165 55.773 102.364 55.7172 101.769 55.4566C101.341 55.2706 100.95 54.9914 100.653 54.6193C100.392 54.3029 100.206 53.9494 100.113 53.54C100.038 53.2236 100.001 52.8701 99.9826 52.5351C99.9454 52.0885 99.9454 51.6233 99.9454 51.1767V46.1339L99.9082 46.1525ZM86.9382 53.5214H83.4956L82.7327 55.6055H80.4253L84.0911 46.1525H86.2683L90.0458 55.6055H87.7011L86.9196 53.5214H86.9382ZM67.3994 48.0319H64.7012V46.1711H72.2562V48.0319H69.558V55.6241H67.3808V48.0319H67.3994ZM47.0791 52.349L49.1819 52.1444V52.2932C49.2935 52.7398 49.461 53.2236 49.8146 53.5214C50.1495 53.8191 50.5961 53.9121 51.0427 53.9121C51.4521 53.9121 51.9545 53.8563 52.2709 53.5772C52.5128 53.3725 52.6616 53.1306 52.6616 52.8143C52.6616 52.6468 52.6244 52.4979 52.5128 52.3677C52.3825 52.2002 52.122 52.0885 51.9173 52.0327C51.7498 51.9769 51.5637 51.9211 51.3963 51.8838C51.0799 51.7908 50.7636 51.7164 50.4659 51.6419C49.7773 51.4745 48.8655 51.1767 48.3259 50.6929C47.749 50.1719 47.4327 49.5206 47.4327 48.739C47.4327 48.2366 47.5816 47.7714 47.8607 47.3434C48.1584 46.8968 48.5678 46.5619 49.0702 46.3572C49.6471 46.1153 50.2984 46.0222 50.9311 46.0222C51.8615 46.0222 52.8849 46.1897 53.6107 46.8224C54.2433 47.3806 54.5411 48.125 54.5783 48.9623V49.1298L52.4383 49.2042V49.0554C52.3639 48.7204 52.2336 48.3483 51.9731 48.1436C51.694 47.9203 51.266 47.8644 50.9124 47.8644C50.5217 47.8644 50.0751 47.9203 49.7587 48.1622C49.6099 48.2738 49.5354 48.4041 49.5354 48.6088C49.5354 48.8135 49.6099 48.9251 49.7587 49.0368C49.889 49.1484 50.1309 49.2415 50.2984 49.3159C50.6519 49.4461 51.0055 49.5392 51.3777 49.6322C51.7684 49.7253 52.1778 49.8369 52.55 49.9672C52.8291 50.0602 53.1268 50.1719 53.3874 50.3021C53.834 50.544 54.1875 50.8604 54.448 51.2884C54.7272 51.7536 54.8388 52.2932 54.8388 52.8329C54.8388 53.3725 54.6713 53.9122 54.3736 54.396C54.0573 54.8984 53.6107 55.252 53.071 55.4753C52.4383 55.7358 51.7126 55.8288 51.0241 55.8288C50.0565 55.8288 49.0144 55.6427 48.2701 54.9914C47.5443 54.3774 47.228 53.4842 47.1163 52.5723V52.4049L47.0791 52.349ZM31.9878 48.0319V49.7439H36.5468V51.6047H31.9878V53.7447H37.0678V55.6055H29.8106V46.1525H36.8818V48.0133H31.9692L31.9878 48.0319ZM17.0081 51.4931C17.25 51.6605 17.4733 51.8466 17.678 52.0699C17.8454 52.256 17.9943 52.4607 18.1432 52.6654C18.3479 52.9631 18.5526 53.2609 18.7386 53.5772L20.004 55.6055H17.4174L16.0404 53.54C15.8543 53.2422 15.6497 52.9631 15.445 52.684C15.3333 52.5351 15.2031 52.3677 15.0728 52.2188C14.9425 52.0699 14.7751 51.9397 14.589 51.8838C14.3471 51.7908 13.9749 51.7908 13.7144 51.7908H13.5097V55.6055H11.3325V46.1525H15.3705C15.7985 46.1525 16.2265 46.1525 16.6545 46.2083C16.9522 46.2455 17.2686 46.3013 17.5477 46.3944C18.0315 46.5805 18.4037 46.8968 18.6828 47.3248C18.9805 47.79 19.1108 48.311 19.1108 48.8507C19.1108 49.5206 18.9247 50.1533 18.4595 50.6557C18.0687 51.1023 17.5291 51.3442 16.9708 51.4745L17.0081 51.4931Z"
            fill="#CCAD64" />
    </g>
    <defs>
        <clipPath id="clip0_1_1021">
            <rect width="188" height="55.5459" fill="white" transform="translate(0 0.227051)" />
        </clipPath>
    </defs>
</svg>